<?xml version="1.0" standalone="no"?>
<!DOCTYPE svg PUBLIC "-//W3C//DTD SVG 20010904//EN"
 "http://www.w3.org/TR/2001/REC-SVG-20010904/DTD/svg10.dtd">
<svg version="1.0" xmlns="http://www.w3.org/2000/svg"
 width="219.000000pt" height="219.000000pt" viewBox="0 0 219.000000 219.000000"
 preserveAspectRatio="xMidYMid meet">
<metadata>
Created by potrace 1.14, written by Peter Selinger 2001-2017
</metadata>
<g transform="translate(0.000000,219.000000) scale(0.100000,-0.100000)"
fill="#000000" stroke="none">
<path d="M1437 2034 c-88 -23 -165 -99 -208 -205 -39 -96 -27 -299 22 -391 12
-23 20 -23 72 3 130 67 230 162 281 269 25 54 30 78 31 140 0 150 -71 217
-198 184z"/>
<path d="M297 1899 c-131 -20 -231 -78 -275 -159 -71 -134 44 -347 238 -441
66 -33 98 -43 200 -65 80 -17 283 -1 415 32 52 14 244 81 253 89 6 5 -50 108
-89 167 -178 263 -480 416 -742 377z"/>
<path d="M1670 1344 c-41 -18 -89 -71 -100 -114 -13 -51 -4 -193 20 -285 28
-109 97 -248 170 -339 62 -78 150 -155 178 -157 10 0 28 -2 42 -3 80 -9 141
40 176 141 87 253 -20 550 -250 698 -103 65 -176 84 -236 59z"/>
<path d="M1315 1322 c-142 -65 -228 -144 -283 -260 -33 -69 -37 -86 -39 -167
-5 -233 91 -462 264 -626 62 -60 106 -85 179 -104 146 -38 323 -7 446 79 15
11 11 15 -36 35 -103 43 -256 207 -345 371 -107 201 -160 517 -106 645 8 21
15 41 15 46 0 16 -34 9 -95 -19z"/>
<path d="M769 787 c-115 -193 -210 -408 -201 -453 6 -31 65 -60 229 -109 91
-28 291 -75 317 -75 3 0 -26 39 -64 87 -131 162 -227 398 -234 570 0 17 -3 34
-6 36 -3 3 -21 -22 -41 -56z"/>
</g>
</svg>
