<?xml version="1.0" encoding="utf-8"?>
<!-- Generator: Adobe Illustrator 25.2.3, SVG Export Plug-In . SVG Version: 6.00 Build 0)  -->
<svg version="1.1" id="Capa_1" xmlns="http://www.w3.org/2000/svg" xmlns:xlink="http://www.w3.org/1999/xlink" x="0px" y="0px"
	 viewBox="0 0 52.5 52.5" style="enable-background:new 0 0 52.5 52.5;" xml:space="preserve">
<style type="text/css">
	.st0{clip-path:url(#SVGID_2_);}
	.st1{clip-path:url(#SVGID_4_);}
</style>
<g>
	<path d="M27.1,19.9c-0.1-0.1-0.3-0.6-0.4-0.8C19.3,4.1,2.9,4.6,0.3,11.3C-1.7,16.5,7,28.8,27.1,19.9z"/>
	<path d="M30.4,18.5c11.3-5,9.7-13.7,6.8-14.8C33.2,2.2,26,8,30.1,18.1C30.2,18.1,30.4,18.4,30.4,18.5z"/>
	<g>
		<defs>
			<rect id="SVGID_1_" x="12.9" y="31.5" width="14.6" height="17.5"/>
		</defs>
		<clipPath id="SVGID_2_">
			<use xlink:href="#SVGID_1_"  style="overflow:visible;"/>
		</clipPath>
		<g class="st0">
			<path d="M19.5,32c-2.1,3.2-3.7,6.5-4.8,8.9c-0.1,0.1-0.1,0.2-0.1,0.4c-0.4,0.9-0.7,1.6-0.9,2.3c-0.3,0.7,0.1,1.6,0.9,1.9
				c0.6,0.2,1.4,0.5,2.3,0.9c0.1,0.1,0.2,0.1,0.4,0.1c2.5,0.9,6,1.8,9.7,2.4c-2.2-2.1-4-4.7-5.3-7.6C20.3,38.3,19.6,35.2,19.5,32z"
				/>
		</g>
	</g>
	<path d="M51.2,28.1c-1.7-3.8-4.8-6.6-8.5-7.9C42.3,20,42,20,41.5,20c-1.9,0-3.7,1.6-3.9,3.5c-0.3,3.3,0.4,6.6,1.8,9.8
		c1.4,3.2,3.5,5.8,6,7.8c0.6,0.5,1.5,0.7,2.3,0.7c1.5,0,3-0.8,3.5-2.1C52.9,36.2,52.9,31.9,51.2,28.1z"/>
	<g>
		<defs>
			<rect id="SVGID_3_" x="23.5" y="19.3" width="22.7" height="29.7"/>
		</defs>
		<clipPath id="SVGID_4_">
			<use xlink:href="#SVGID_3_"  style="overflow:visible;"/>
		</clipPath>
		<g class="st1">
			<path d="M35.2,35.3c-1.8-4-2.5-8.1-2.2-12.1C33.1,22,33.5,21,34,20c-0.1,0-0.2,0.1-0.3,0.1c-0.1,0.1-0.4,0.1-0.5,0.1
				c-1.1,0.3-2.2,0.8-3.1,1.3c-0.5,0.3-0.9,0.6-1.4,0.9c-2.4,1.6-4.5,4.5-4.8,7.5c-0.3,3.2,0.3,6.5,1.7,9.7c1.4,3.1,3.4,5.6,5.8,7.5
				c1.5,1.2,4.2,1.9,6.4,1.9c2.4,0,5-0.9,7.1-2.2c0,0,0.1,0,0.1-0.1c0.1-0.1,0.3-0.2,0.4-0.3c0.1-0.1,0.1-0.1,0.2-0.1
				c-1.2-0.3-2.2-0.8-3-1.4C39.5,42.5,36.9,39.2,35.2,35.3z"/>
		</g>
	</g>
</g>
</svg>
