<?xml version="1.0" encoding="utf-8"?>
<!-- Generator: Adobe Illustrator 25.2.3, SVG Export Plug-In . SVG Version: 6.00 Build 0)  -->
<svg version="1.1" id="Capa_1" xmlns="http://www.w3.org/2000/svg" xmlns:xlink="http://www.w3.org/1999/xlink" x="0px" y="0px"
	 viewBox="0 0 290.1 64" style="enable-background:new 0 0 290.1 64;" xml:space="preserve">
<style type="text/css">
	.st0{clip-path:url(#SVGID_2_);}
	.st1{clip-path:url(#SVGID_4_);}
</style>
<g>
	<path d="M28.1,24.9c-0.1-0.1-0.3-0.6-0.4-0.8C20.4,9.1,3.9,9.6,1.3,16.3C-0.7,21.5,8,33.7,28.1,24.9z"/>
	<path d="M31.4,23.5c11.3-5,9.7-13.7,6.8-14.8c-3.9-1.5-11.1,4.3-7,14.4C31.3,23.1,31.4,23.4,31.4,23.5z"/>
	<g>
		<defs>
			<rect id="SVGID_1_" x="14" y="36.5" width="14.6" height="17.5"/>
		</defs>
		<clipPath id="SVGID_2_">
			<use xlink:href="#SVGID_1_"  style="overflow:visible;"/>
		</clipPath>
		<g class="st0">
			<path d="M20.6,37c-2.1,3.2-3.7,6.5-4.8,8.9c-0.1,0.1-0.1,0.2-0.1,0.4c-0.4,0.9-0.7,1.6-0.9,2.3c-0.3,0.7,0.1,1.6,0.9,1.9
				c0.6,0.2,1.4,0.5,2.3,0.9c0.1,0.1,0.2,0.1,0.4,0.1c2.5,0.9,6,1.8,9.7,2.4c-2.2-2.1-4-4.7-5.3-7.6C21.4,43.3,20.7,40.1,20.6,37z"
				/>
		</g>
	</g>
	<path d="M52.3,33.1c-1.7-3.8-4.8-6.6-8.5-7.9C43.4,25,43,25,42.6,25c-1.9,0-3.7,1.6-3.9,3.5c-0.3,3.3,0.4,6.6,1.8,9.8
		c1.4,3.2,3.5,5.8,6,7.8c0.6,0.5,1.5,0.7,2.3,0.7c1.5,0,3-0.8,3.5-2.1C53.9,41.2,54,36.9,52.3,33.1z"/>
	<g>
		<defs>
			<rect id="SVGID_3_" x="24.5" y="24.3" width="22.7" height="29.7"/>
		</defs>
		<clipPath id="SVGID_4_">
			<use xlink:href="#SVGID_3_"  style="overflow:visible;"/>
		</clipPath>
		<g class="st1">
			<path d="M36.2,40.3c-1.8-4-2.5-8.1-2.2-12.1C34.1,27,34.5,26,35,25c-0.1,0-0.2,0.1-0.3,0.1c-0.1,0.1-0.4,0.1-0.5,0.1
				c-1.1,0.3-2.2,0.8-3.1,1.3c-0.5,0.3-0.9,0.6-1.4,0.9c-2.4,1.6-4.5,4.5-4.8,7.5c-0.3,3.2,0.3,6.5,1.7,9.7c1.4,3.1,3.4,5.6,5.8,7.5
				c1.5,1.2,4.2,1.9,6.4,1.9c2.4,0,5-0.9,7.1-2.2c0,0,0.1,0,0.1-0.1c0.1-0.1,0.3-0.2,0.4-0.3c0.1-0.1,0.1-0.1,0.2-0.1
				c-1.2-0.3-2.2-0.8-3-1.4C40.5,47.5,38,44.2,36.2,40.3z"/>
		</g>
	</g>
</g>
<g>
	<g>
		<g transform="translate(85.108844, 202.352792)">
			<path d="M-2.1-163c1.2-1.2,1.8-2.8,1.8-4.9c0-2.1-0.6-3.7-1.8-4.8c-1.2-1.2-2.6-1.8-4.2-1.8c-1.6,0-3,0.6-4.1,1.8
				c-1.2,1.2-1.8,2.8-1.8,4.8c0,2.1,0.6,3.7,1.8,4.8c1.2,1.2,2.6,1.8,4.1,1.8C-4.6-161.2-3.2-161.8-2.1-163z M-12.1-175.6
				c1.6-2.5,3.9-3.8,7-3.8c3.1,0,5.6,1.1,7.6,3.2c2,2.2,3,4.9,3,8.3c0,3.4-1,6.2-3,8.3c-2,2.2-4.5,3.2-7.6,3.2c-3,0-5.4-1.4-7.1-4.1
				v3.8h-5.7v-30h5.7V-175.6z"/>
		</g>
	</g>
	<g>
		<g transform="translate(119.406658, 202.352792)">
			<path d="M-14.8-156.3c-3.3,0-5.9-1.1-8-3.2c-2.1-2.1-3.1-4.9-3.1-8.4c0-3.5,1-6.3,3.1-8.4c2.1-2.1,4.7-3.1,8-3.1
				c3.3,0,6,1,8.1,3.1c2.1,2,3.2,4.8,3.2,8.2c0,0.8-0.1,1.5-0.2,2.2H-20c0.1,1.5,0.7,2.6,1.6,3.5c0.9,0.9,2.1,1.3,3.6,1.3
				c2,0,3.4-0.8,4.4-2.4h6.2c-0.7,2.1-1.9,3.9-3.8,5.2C-9.9-157-12.2-156.3-14.8-156.3z M-9.4-169.7c-0.1-1.5-0.6-2.7-1.6-3.6
				c-1-0.9-2.2-1.3-3.7-1.3c-1.4,0-2.6,0.4-3.6,1.3c-1,0.9-1.5,2.1-1.7,3.6H-9.4z"/>
		</g>
	</g>
	<g>
		<g transform="translate(150.559256, 202.352792)">
			<path d="M-20.7-156.3c-3.3,0-5.9-1.1-8-3.2c-2.1-2.1-3.1-4.9-3.1-8.4c0-3.5,1-6.3,3.1-8.4c2.1-2.1,4.7-3.1,8-3.1
				c3.3,0,6,1,8.1,3.1c2.1,2,3.2,4.8,3.2,8.2c0,0.8-0.1,1.5-0.2,2.2h-16.4c0.1,1.5,0.7,2.6,1.6,3.5c0.9,0.9,2.1,1.3,3.6,1.3
				c2,0,3.4-0.8,4.4-2.4h6.2c-0.7,2.1-1.9,3.9-3.8,5.2C-15.8-157-18-156.3-20.7-156.3z M-15.3-169.7c-0.1-1.5-0.6-2.7-1.6-3.6
				c-1-0.9-2.2-1.3-3.7-1.3c-1.4,0-2.6,0.4-3.6,1.3c-1,0.9-1.5,2.1-1.7,3.6H-15.3z"/>
		</g>
	</g>
	<g>
		<g transform="translate(181.711855, 202.352792)">
			<path d="M-39-156.6"/>
		</g>
	</g>
	<g>
		<g transform="translate(196.689061, 202.352792)">
			<path d="M-33.1-186.6v10.9c1.4-2.5,3.8-3.7,7-3.7c2.6,0,4.7,0.8,6.3,2.5c1.6,1.7,2.4,4,2.4,7v13.2h-5.7V-169c0-1.8-0.5-3.1-1.3-4
				c-0.9-0.9-2.1-1.4-3.6-1.4c-1.5,0-2.8,0.5-3.7,1.4c-0.9,0.9-1.4,2.3-1.4,4v12.4h-5.7v-30H-33.1z"/>
		</g>
	</g>
	<g>
		<g transform="translate(230.287939, 202.352792)">
			<path d="M-30.8-163c1.2-1.2,1.8-2.8,1.8-4.8c0-2.1-0.6-3.7-1.8-4.8c-1.2-1.2-2.6-1.8-4.2-1.8c-1.6,0-3,0.6-4.1,1.8
				c-1.2,1.2-1.8,2.8-1.8,4.8c0,2.1,0.6,3.7,1.8,4.9c1.2,1.2,2.6,1.8,4.2,1.8C-33.4-161.2-32-161.8-30.8-163z M-43.7-159.5
				c-2-2.2-3-5-3-8.3c0-3.4,1-6.1,3-8.3c2-2.1,4.5-3.2,7.6-3.2c3.1,0,5.4,1.3,7.1,3.8v-3.5h5.7v22.5H-29v-3.8
				c-1.7,2.7-4.1,4.1-7.1,4.1C-39.2-156.3-41.7-157.4-43.7-159.5z"/>
		</g>
	</g>
	<g>
		<g transform="translate(264.585762, 202.352792)">
			<path d="M-35.8-163c1.2-1.2,1.8-2.8,1.8-4.9c0-2.1-0.6-3.7-1.8-4.8c-1.2-1.2-2.6-1.8-4.2-1.8c-1.6,0-3,0.6-4.1,1.8
				c-1.2,1.2-1.8,2.8-1.8,4.8c0,2.1,0.6,3.7,1.8,4.8c1.2,1.2,2.6,1.8,4.1,1.8C-38.3-161.2-37-161.8-35.8-163z M-45.9-175.6
				c1.6-2.5,3.9-3.8,7-3.8c3.1,0,5.6,1.1,7.6,3.2c2,2.2,3,4.9,3,8.3c0,3.4-1,6.2-3,8.3c-2,2.2-4.5,3.2-7.6,3.2c-3,0-5.4-1.4-7.1-4.1
				v14.5h-5.7v-33.2h5.7V-175.6z"/>
		</g>
	</g>
	<g>
		<g transform="translate(298.883584, 202.352792)">
			<path d="M-42.2-163c1.2-1.2,1.8-2.8,1.8-4.9c0-2.1-0.6-3.7-1.8-4.8c-1.2-1.2-2.6-1.8-4.2-1.8c-1.6,0-3,0.6-4.1,1.8
				c-1.2,1.2-1.8,2.8-1.8,4.8c0,2.1,0.6,3.7,1.8,4.8c1.2,1.2,2.6,1.8,4.1,1.8C-44.8-161.2-43.4-161.8-42.2-163z M-52.3-175.6
				c1.6-2.5,3.9-3.8,7-3.8c3.1,0,5.6,1.1,7.6,3.2c2,2.2,3,4.9,3,8.3c0,3.4-1,6.2-3,8.3c-2,2.2-4.5,3.2-7.6,3.2c-3,0-5.4-1.4-7.1-4.1
				v14.5H-58v-33.2h5.7V-175.6z"/>
		</g>
	</g>
	<g>
		<g transform="translate(333.181407, 202.352792)">
			<path d="M-58.4-157l-8.8-22.1h6.4l5.7,16l6-16h6l-14,33.1h-6L-58.4-157z"/>
		</g>
	</g>
</g>
</svg>
